<svg width="98" height="66" viewBox="0 0 98 66" fill="none" xmlns="http://www.w3.org/2000/svg">
<path d="M0.21875 27.085V52.3345C0.21875 59.6056 6.11303 65.4999 13.3841 65.4999H84.6173C91.8884 65.4999 97.7827 59.6056 97.7827 52.3345V27.085C97.7827 25.8205 96.7575 24.7954 95.493 24.7954H2.50838C1.24393 24.7954 0.21875 25.8205 0.21875 27.085ZM24.578 43.1124H18.4723C16.2593 43.1124 14.4654 41.3185 14.4654 39.1056C14.4654 36.8926 16.2593 35.0987 18.4723 35.0987H24.578C26.7909 35.0987 28.5848 36.8926 28.5848 39.1056C28.5848 41.3185 26.7909 43.1124 24.578 43.1124Z" fill="url(#paint0_linear_93_6611)" fill-opacity="0.2"/>
<path d="M97.7827 14.492V13.6653C97.7827 6.39416 91.8884 0.499878 84.6173 0.499878H13.3841C6.11303 0.499878 0.21875 6.39416 0.21875 13.6653V14.492C0.21875 15.7565 1.24393 16.7816 2.50838 16.7816H95.493C96.7575 16.7816 97.7827 15.7565 97.7827 14.492Z" fill="url(#paint1_linear_93_6611)" fill-opacity="0.2"/>
<defs>
<linearGradient id="paint0_linear_93_6611" x1="97.7827" y1="0.499878" x2="33.7153" y2="71.8748" gradientUnits="userSpaceOnUse">
<stop stop-color="white"/>
<stop offset="1" stop-color="white" stop-opacity="0"/>
<stop offset="1.0001" stop-color="white" stop-opacity="0"/>
</linearGradient>
<linearGradient id="paint1_linear_93_6611" x1="97.7827" y1="0.499878" x2="33.7153" y2="71.8748" gradientUnits="userSpaceOnUse">
<stop stop-color="white"/>
<stop offset="1" stop-color="white" stop-opacity="0"/>
<stop offset="1.0001" stop-color="white" stop-opacity="0"/>
</linearGradient>
</defs>
</svg>
