<svg width="110" height="65" viewBox="0 0 110 65" fill="none" xmlns="http://www.w3.org/2000/svg">
<path fill-rule="evenodd" clip-rule="evenodd" d="M78.418 0.646916C87.955 2.85665 91.6032 8.42499 96.177 16.0891H78.418V0.646916ZM22.6828 16.7327C24.5501 16.7327 25.9055 17.6327 25.9055 19.736C25.9055 21.51 24.4678 22.9488 22.692 22.9538H3.22266C1.44264 22.9538 0 24.3951 0 26.1716C0 27.949 1.44264 29.3894 3.22266 29.3894H32.2266C34.0234 29.3894 35.4618 30.8291 35.4618 32.6073C35.4618 34.3846 34.0192 35.8251 32.2392 35.8251H3.22266C1.44264 35.8251 0 37.2656 0 39.0429C0 40.8202 1.44264 42.2607 3.22266 42.2607H10.3125V51.9142C10.3125 53.6915 11.7551 55.132 13.5352 55.132H20.0132C21.168 60.8118 26.1942 65 32.1191 65C38.0441 65 43.0703 60.8118 44.2251 55.132H76.9468C78.1016 60.8118 83.1277 65 89.0527 65C94.9777 65 100.004 60.8118 101.159 55.132H106.777C108.557 55.132 110 53.6915 110 51.9142V32.6073C110 23.1658 100.027 22.539 100.017 22.5248H75.1953C73.4153 22.5248 71.9727 21.0843 71.9727 19.3069V0H13.5352C11.7551 0 10.3125 1.44048 10.3125 3.21782V10.297H6.44531C4.6653 10.297 3.22266 11.7375 3.22266 13.5149C3.22266 15.2922 4.6653 16.7327 6.44531 16.7327H22.6828ZM93.2304 48.4936C95.5375 50.7972 95.5375 54.5337 93.2304 56.8373C89.5193 60.5428 83.1445 57.9065 83.1445 52.665C83.1445 47.4243 89.5193 44.7881 93.2304 48.4936ZM36.2968 48.4936C38.6039 50.7972 38.6039 54.5337 36.2968 56.8373C32.5858 60.5428 26.2109 57.9065 26.2109 52.665C26.2109 47.4243 32.5858 44.7881 36.2968 48.4936Z" fill="url(#paint0_linear_93_6552)" fill-opacity="0.2"/>
<defs>
<linearGradient id="paint0_linear_93_6552" x1="110" y1="0" x2="47.1978" y2="78.8837" gradientUnits="userSpaceOnUse">
<stop stop-color="white"/>
<stop offset="1" stop-color="white" stop-opacity="0"/>
<stop offset="1.0001" stop-color="white" stop-opacity="0"/>
</linearGradient>
</defs>
</svg>
