<svg width="68" height="79" viewBox="0 0 68 79" fill="none" xmlns="http://www.w3.org/2000/svg">
<path d="M34.0685 25.0247C25.8559 25.0247 19.1748 31.7058 19.1748 39.9178C19.1748 48.1303 25.8559 54.8114 34.0685 54.8114C42.2804 54.8114 48.9615 48.1303 48.9615 39.9178C48.9615 31.7058 42.2804 25.0247 34.0685 25.0247ZM42.9108 37.1131L32.2412 47.7826C31.7933 48.2305 31.2059 48.4547 30.6191 48.4547C30.0323 48.4547 29.4454 48.2311 28.9976 47.7826L24.9202 43.7053C24.0245 42.8101 24.0245 41.358 24.9202 40.4623C25.8154 39.5665 27.2675 39.5665 28.1632 40.4623L30.6191 42.9181L39.6677 33.87C40.5629 32.9743 42.015 32.9743 42.9108 33.87C43.8065 34.7652 43.8065 36.2173 42.9108 37.1131Z" fill="url(#paint0_linear_93_6643)" fill-opacity="0.2"/>
<path d="M67.2729 22.0417L67.2705 21.9809C67.2365 21.2301 67.2139 20.4357 67.2001 19.5519C67.1363 15.2419 63.7102 11.6769 59.3997 11.4359C50.4125 10.9344 43.46 8.00386 37.5196 2.21374L37.4689 2.16544C35.5313 0.388865 32.6086 0.388865 30.6704 2.16544L30.6197 2.21374C24.6793 8.00386 17.7268 10.9344 8.73962 11.4365C4.42968 11.6769 1.00297 15.2419 0.939155 19.5525C0.926035 20.4303 0.902776 21.2247 0.868784 21.9809L0.865205 22.1222C0.69047 31.2866 0.473393 42.6921 4.28894 53.0444C6.38696 58.7373 9.56439 63.6859 13.7324 67.7537C18.4795 72.3863 24.6972 76.0641 32.2126 78.6845C32.4571 78.7698 32.7111 78.839 32.97 78.8909C33.3349 78.9636 33.7023 79 34.0697 79C34.437 79 34.805 78.9636 35.1693 78.8909C35.4282 78.839 35.684 78.7692 35.9297 78.6833C43.4362 76.0581 49.6473 72.3786 54.3902 67.7466C58.5564 63.6776 61.7339 58.7277 63.8337 53.0336C67.6635 42.6503 67.447 31.2234 67.2729 22.0417ZM34.0685 59.3981C23.3267 59.3981 14.5882 50.6595 14.5882 39.9178C14.5882 29.176 23.3267 20.4375 34.0685 20.4375C44.8096 20.4375 53.5487 29.176 53.5487 39.9178C53.5487 50.6595 44.8096 59.3981 34.0685 59.3981Z" fill="url(#paint1_linear_93_6643)" fill-opacity="0.2"/>
<defs>
<linearGradient id="paint0_linear_93_6643" x1="67.3505" y1="0.833008" x2="-2.64741" y2="45.0745" gradientUnits="userSpaceOnUse">
<stop stop-color="white"/>
<stop offset="1" stop-color="white" stop-opacity="0"/>
<stop offset="1.0001" stop-color="white" stop-opacity="0"/>
</linearGradient>
<linearGradient id="paint1_linear_93_6643" x1="67.3505" y1="0.833008" x2="-2.64741" y2="45.0745" gradientUnits="userSpaceOnUse">
<stop stop-color="white"/>
<stop offset="1" stop-color="white" stop-opacity="0"/>
<stop offset="1.0001" stop-color="white" stop-opacity="0"/>
</linearGradient>
</defs>
</svg>
