<?xml version="1.0" encoding="UTF-8"?>
<svg id="_Шар_2" data-name="Шар 2" xmlns="http://www.w3.org/2000/svg" viewBox="0 0 274.43 37.07">
  <defs>
    <style>
      .cls-1 {
        fill: #ffca0b;
      }

      .cls-2 {
        fill: #dbd9d7;
      }
    </style>
  </defs>
  <g id="_Шар_1-2" data-name="Шар 1">
    <path class="cls-1" d="M18.55,.36c-.21,.24-1.55,2.82-2.99,5.67-2.03,4.06-2.78,5.29-3.37,5.43-.45,.07-3.09,.48-5.88,.86C.4,13.18,.33,13.18,.02,14.11c-.17,.58,.65,1.58,4.33,5.26l4.54,4.57-1.03,5.95c-1.07,6.22-1.03,7.18,.28,7.18,.34,0,2.99-1.24,5.88-2.75,2.85-1.51,5.33-2.75,5.5-2.75s2.61,1.24,5.47,2.75,5.47,2.75,5.84,2.75c1.31,0,1.34-.96,.28-7.18l-1.03-5.95,4.54-4.57c3.68-3.68,4.5-4.68,4.33-5.26-.31-.93-.38-.96-6.46-1.79-2.89-.41-5.53-.86-5.91-1-.38-.14-1.79-2.47-3.44-5.71C20.99,1.42,20.16,.08,19.61,.02c-.38-.07-.86,.1-1.07,.34Z"/>
    <path class="cls-1" d="M77.03,.36c-.21,.24-1.55,2.82-2.99,5.67-2.03,4.06-2.78,5.29-3.37,5.43-.45,.07-3.09,.48-5.88,.86-5.91,.86-5.98,.86-6.29,1.79-.17,.58,.65,1.58,4.33,5.26l4.54,4.57-1.03,5.95c-1.07,6.22-1.03,7.18,.28,7.18,.34,0,2.99-1.24,5.88-2.75,2.85-1.51,5.33-2.75,5.5-2.75s2.61,1.24,5.47,2.75c2.85,1.51,5.47,2.75,5.84,2.75,1.31,0,1.34-.96,.28-7.18l-1.03-5.95,4.54-4.57c3.68-3.68,4.5-4.68,4.33-5.26-.31-.93-.38-.96-6.46-1.79-2.89-.41-5.53-.86-5.91-1-.38-.14-1.79-2.47-3.44-5.71C79.47,1.42,78.64,.08,78.09,.02c-.38-.07-.86,.1-1.07,.34Z"/>
    <path class="cls-1" d="M136.03,.36c-.21,.24-1.55,2.82-2.99,5.67-2.03,4.06-2.78,5.29-3.37,5.43-.45,.07-3.09,.48-5.88,.86-5.91,.86-5.98,.86-6.29,1.79-.17,.58,.65,1.58,4.33,5.26l4.54,4.57-1.03,5.95c-1.06,6.22-1.03,7.18,.28,7.18,.34,0,2.99-1.24,5.88-2.75,2.85-1.51,5.33-2.75,5.5-2.75s2.61,1.24,5.47,2.75,5.47,2.75,5.84,2.75c1.31,0,1.34-.96,.28-7.18l-1.03-5.95,4.54-4.57c3.68-3.68,4.5-4.68,4.33-5.26-.31-.93-.38-.96-6.46-1.79-2.89-.41-5.54-.86-5.91-1-.38-.14-1.79-2.47-3.44-5.71-2.13-4.19-2.96-5.53-3.51-5.6-.38-.07-.86,.1-1.07,.34Z"/>
    <path class="cls-2" d="M195.03,.36c-.21,.24-1.55,2.82-2.99,5.67-2.03,4.06-2.78,5.29-3.37,5.43-.45,.07-3.09,.48-5.88,.86-5.91,.86-5.98,.86-6.29,1.79-.17,.58,.65,1.58,4.33,5.26l4.54,4.57-1.03,5.95c-1.07,6.22-1.03,7.18,.27,7.18,.34,0,2.99-1.24,5.88-2.75,2.85-1.51,5.33-2.75,5.5-2.75s2.61,1.24,5.47,2.75,5.47,2.75,5.84,2.75c1.31,0,1.34-.96,.28-7.18l-1.03-5.95,4.54-4.57c3.68-3.68,4.5-4.68,4.33-5.26-.31-.93-.38-.96-6.46-1.79-2.89-.41-5.54-.86-5.91-1-.38-.14-1.79-2.47-3.44-5.71-2.13-4.19-2.96-5.53-3.51-5.6-.38-.07-.86,.1-1.07,.34Z"/>
    <path class="cls-2" d="M254.03,.36c-.21,.24-1.55,2.82-2.99,5.67-2.03,4.06-2.78,5.29-3.37,5.43-.45,.07-3.09,.48-5.88,.86-5.91,.86-5.98,.86-6.29,1.79-.17,.58,.65,1.58,4.33,5.26l4.54,4.57-1.03,5.95c-1.07,6.22-1.03,7.18,.27,7.18,.34,0,2.99-1.24,5.88-2.75,2.85-1.51,5.33-2.75,5.5-2.75s2.61,1.24,5.47,2.75c2.85,1.51,5.47,2.75,5.84,2.75,1.31,0,1.34-.96,.27-7.18l-1.03-5.95,4.54-4.57c3.68-3.68,4.5-4.68,4.33-5.26-.31-.93-.38-.96-6.46-1.79-2.89-.41-5.54-.86-5.91-1-.38-.14-1.79-2.47-3.44-5.71-2.13-4.19-2.96-5.53-3.51-5.6-.38-.07-.86,.1-1.07,.34Z"/>
  </g>
</svg>